<?xml version="1.0" encoding="UTF-8" standalone="no"?>
<svg
   xmlns:dc="http://purl.org/dc/elements/1.1/"
   xmlns:cc="http://creativecommons.org/ns#"
   xmlns:rdf="http://www.w3.org/1999/02/22-rdf-syntax-ns#"
   xmlns:svg="http://www.w3.org/2000/svg"
   xmlns="http://www.w3.org/2000/svg"
   xmlns:sodipodi="http://sodipodi.sourceforge.net/DTD/sodipodi-0.dtd"
   xmlns:inkscape="http://www.inkscape.org/namespaces/inkscape"
   width="1000.0001"
   height="368.79343"
   viewBox="0 0 264.58335 97.576597"
   version="1.1"
   id="svg8"
   inkscape:export-filename="/home/levitanus/Изображения/дизайн полифония/polyfonia inst.png"
   inkscape:export-xdpi="95.999992"
   inkscape:export-ydpi="95.999992"
   inkscape:version="1.0.2 (e86c870879, 2021-01-15)"
   sodipodi:docname="polifonia_logo.svg">
  <defs
     id="defs2">
    <inkscape:path-effect
       effect="bspline"
       id="path-effect1789"
       is_visible="true"
       lpeversion="1"
       weight="33.333333"
       steps="2"
       helper_size="0"
       apply_no_weight="true"
       apply_with_weight="true"
       only_selected="false" />
    <inkscape:path-effect
       effect="bspline"
       id="path-effect1775"
       is_visible="true"
       lpeversion="1"
       weight="33.333333"
       steps="2"
       helper_size="0"
       apply_no_weight="true"
       apply_with_weight="true"
       only_selected="false" />
    <inkscape:path-effect
       effect="bspline"
       id="path-effect1771"
       is_visible="true"
       lpeversion="1"
       weight="33.333333"
       steps="2"
       helper_size="0"
       apply_no_weight="true"
       apply_with_weight="true"
       only_selected="false" />
    <inkscape:path-effect
       effect="bspline"
       id="path-effect1767"
       is_visible="true"
       lpeversion="1"
       weight="33.333333"
       steps="2"
       helper_size="0"
       apply_no_weight="true"
       apply_with_weight="true"
       only_selected="false" />
    <inkscape:path-effect
       effect="bspline"
       id="path-effect1763"
       is_visible="true"
       lpeversion="1"
       weight="33.333333"
       steps="2"
       helper_size="0"
       apply_no_weight="true"
       apply_with_weight="true"
       only_selected="false" />
    <inkscape:path-effect
       effect="bspline"
       id="path-effect1759"
       is_visible="true"
       lpeversion="1"
       weight="33.333333"
       steps="2"
       helper_size="0"
       apply_no_weight="true"
       apply_with_weight="true"
       only_selected="false" />
    <inkscape:path-effect
       effect="bspline"
       id="path-effect1741"
       is_visible="true"
       lpeversion="1"
       weight="33.333333"
       steps="2"
       helper_size="0"
       apply_no_weight="true"
       apply_with_weight="true"
       only_selected="false" />
  </defs>
  <sodipodi:namedview
     id="base"
     pagecolor="#ffffff"
     bordercolor="#666666"
     borderopacity="1.0"
     inkscape:pageopacity="0.0"
     inkscape:pageshadow="2"
     inkscape:zoom="0.35"
     inkscape:cx="656.04965"
     inkscape:cy="612.71989"
     inkscape:document-units="mm"
     inkscape:current-layer="text916"
     inkscape:document-rotation="0"
     showgrid="false"
     units="px"
     inkscape:snap-page="true"
     showguides="true"
     inkscape:guide-bbox="true"
     inkscape:snap-bbox="false"
     inkscape:snap-global="true"
     inkscape:window-width="1920"
     inkscape:window-height="1018"
     inkscape:window-x="1080"
     inkscape:window-y="534"
     inkscape:window-maximized="1"
     fit-margin-top="0"
     fit-margin-left="0"
     fit-margin-right="0"
     fit-margin-bottom="0" />
  <metadata
     id="metadata5">
    <rdf:RDF>
      <cc:Work
         rdf:about="">
        <dc:format>image/svg+xml</dc:format>
        <dc:type
           rdf:resource="http://purl.org/dc/dcmitype/StillImage" />
        <dc:title></dc:title>
      </cc:Work>
    </rdf:RDF>
  </metadata>
  <g
     inkscape:label="Слой 1"
     inkscape:groupmode="layer"
     id="layer1"
     transform="translate(0,-83.503372)">
    <g
       id="g1813">
      <g
         aria-label="ПОЛИ     ОНИЯ"
         id="text830"
         style="font-style:normal;font-variant:normal;font-weight:900;font-stretch:normal;font-size:43.3965px;line-height:1.25;font-family:'Alegreya Sans SC';-inkscape-font-specification:'Alegreya Sans SC, Heavy';font-variant-ligatures:normal;font-variant-caps:normal;font-variant-numeric:normal;font-feature-settings:normal;text-align:start;letter-spacing:0px;word-spacing:0px;writing-mode:lr-tb;text-anchor:start;fill:#ffffff;fill-opacity:1;stroke:none;stroke-width:1.16241">
        <path
           d="m 35.817981,131.32742 0.371969,9.76418 h -9.345717 l 0.464961,-8.83426 -0.325472,-14.18131 h -7.764849 l -0.325473,13.25139 0.371969,9.76418 H 9.9196525 L 10.384614,132.25734 9.9196525,111.00862 H 36.329438 Z"
           style="font-style:normal;font-variant:normal;font-weight:900;font-stretch:normal;font-size:46.4961px;font-family:'Alegreya Sans SC';-inkscape-font-specification:'Alegreya Sans SC, Heavy';font-variant-ligatures:normal;font-variant-caps:normal;font-variant-numeric:normal;font-feature-settings:normal;text-align:start;letter-spacing:-2.8014px;writing-mode:lr-tb;text-anchor:start;fill:#ffffff;fill-opacity:1;stroke-width:1.16241"
           id="path1037" />
        <path
           d="m 52.451925,110.45067 q 6.55595,0 10.13615,3.90567 3.5802,3.85918 3.5802,10.92658 0,7.81135 -3.952169,12.08899 -3.905672,4.27764 -11.112568,4.27764 -6.55595,0 -10.13615,-3.90567 -3.5802,-3.95217 -3.5802,-11.15907 0,-7.71835 3.905673,-11.903 3.952168,-4.23114 11.159064,-4.23114 z m -0.83693,7.43937 q -1.813348,0 -2.74327,0.65095 -0.929922,0.60445 -1.348387,2.18532 -0.371968,1.58086 -0.371968,4.60311 0,3.85918 0.418465,5.85851 0.418464,1.99933 1.394883,2.78976 1.022914,0.79044 2.97575,0.79044 1.813348,0 2.74327,-0.60445 0.929922,-0.65095 1.301891,-2.23181 0.418465,-1.62737 0.418465,-4.64961 0,-3.81268 -0.418465,-5.81202 -0.418465,-1.99933 -1.441379,-2.78976 -0.976418,-0.79044 -2.929255,-0.79044 z"
           style="font-style:normal;font-variant:normal;font-weight:900;font-stretch:normal;font-size:46.4961px;font-family:'Alegreya Sans SC';-inkscape-font-specification:'Alegreya Sans SC, Heavy';font-variant-ligatures:normal;font-variant-caps:normal;font-variant-numeric:normal;font-feature-settings:normal;text-align:start;letter-spacing:-2.8014px;writing-mode:lr-tb;text-anchor:start;fill:#ffffff;fill-opacity:1;stroke-width:1.16241"
           id="path1039" />
        <path
           d="m 92.054912,131.32742 0.371968,9.76418 h -9.345716 l 0.464961,-8.83426 -0.325473,-14.3673 h -3.208231 l -0.185984,1.2554 q -1.208899,9.25272 -2.557286,14.04182 -1.348387,4.7891 -3.347719,6.74194 -1.952836,1.95283 -5.300555,1.95283 h -2.278309 l -1.487876,-7.67185 q 2.231813,-0.37197 3.487208,-1.85985 1.255395,-1.48787 2.045828,-4.83559 0.790434,-3.39422 1.580868,-10.08966 l 0.743937,-6.41646 h 19.853836 z"
           style="font-style:normal;font-variant:normal;font-weight:900;font-stretch:normal;font-size:46.4961px;font-family:'Alegreya Sans SC';-inkscape-font-specification:'Alegreya Sans SC, Heavy';font-variant-ligatures:normal;font-variant-caps:normal;font-variant-numeric:normal;font-feature-settings:normal;text-align:start;letter-spacing:-2.8014px;writing-mode:lr-tb;text-anchor:start;fill:#ffffff;fill-opacity:1;stroke-width:1.16241"
           id="path1041" />
        <path
           d="m 95.669938,132.25734 -0.464961,-21.01624 9.485203,-0.46496 -0.65094,16.41312 h 0.55795 l 8.46229,-16.18064 h 9.95017 l -0.51146,20.3188 0.37197,9.76418 h -9.34572 l 0.46496,-8.83426 0.0465,-7.43938 h -0.55796 l -8.50878,16.27364 h -9.764183 z"
           style="font-style:normal;font-variant:normal;font-weight:900;font-stretch:normal;font-size:46.4961px;font-family:'Alegreya Sans SC';-inkscape-font-specification:'Alegreya Sans SC, Heavy';font-variant-ligatures:normal;font-variant-caps:normal;font-variant-numeric:normal;font-feature-settings:normal;text-align:start;letter-spacing:-2.8014px;writing-mode:lr-tb;text-anchor:start;fill:#ffffff;fill-opacity:1;stroke-width:1.16241"
           id="path1043" />
        <path
           d="m 156.50956,110.45067 q 6.55595,0 10.13615,3.90567 3.5802,3.85918 3.5802,10.92658 0,7.81135 -3.95217,12.08899 -3.90568,4.27764 -11.11257,4.27764 -6.55595,0 -10.13615,-3.90567 -3.5802,-3.95217 -3.5802,-11.15907 0,-7.71835 3.90567,-11.903 3.95217,-4.23114 11.15907,-4.23114 z m -0.83693,7.43937 q -1.81335,0 -2.74327,0.65095 -0.92993,0.60445 -1.34839,2.18532 -0.37197,1.58086 -0.37197,4.60311 0,3.85918 0.41847,5.85851 0.41846,1.99933 1.39488,2.78976 1.02291,0.79044 2.97575,0.79044 1.81335,0 2.74327,-0.60445 0.92992,-0.65095 1.30189,-2.23181 0.41846,-1.62737 0.41846,-4.64961 0,-3.81268 -0.41846,-5.81202 -0.41847,-1.99933 -1.44138,-2.78976 -0.97642,-0.79044 -2.92925,-0.79044 z"
           style="font-style:normal;font-variant:normal;font-weight:900;font-stretch:normal;font-size:46.4961px;font-family:'Alegreya Sans SC';-inkscape-font-specification:'Alegreya Sans SC, Heavy';font-variant-ligatures:normal;font-variant-caps:normal;font-variant-numeric:normal;font-feature-settings:normal;text-align:start;letter-spacing:-2.8014px;writing-mode:lr-tb;text-anchor:start;fill:#ffffff;fill-opacity:1;stroke-width:1.16241"
           id="path1045" />
        <path
           d="m 197.73984,131.32742 0.37197,9.76418 h -9.34572 l 0.46496,-8.83426 -0.0465,-2.32481 -5.02157,-0.093 -4.32414,0.13949 -0.0465,1.34839 0.37197,9.76418 h -9.34572 l 0.46497,-8.83426 -0.46497,-21.24872 h 9.48521 l -0.27898,11.39155 4.69611,0.093 4.27764,-0.093 -0.23248,-11.39155 h 9.4852 z"
           style="font-style:normal;font-variant:normal;font-weight:900;font-stretch:normal;font-size:46.4961px;font-family:'Alegreya Sans SC';-inkscape-font-specification:'Alegreya Sans SC, Heavy';font-variant-ligatures:normal;font-variant-caps:normal;font-variant-numeric:normal;font-feature-settings:normal;text-align:start;letter-spacing:-2.8014px;writing-mode:lr-tb;text-anchor:start;fill:#ffffff;fill-opacity:1;stroke-width:1.16241"
           id="path1047" />
        <path
           d="m 201.35484,132.25734 -0.46496,-21.01624 9.48521,-0.46496 -0.65095,16.41312 h 0.55796 l 8.46229,-16.18064 h 9.95016 l -0.51146,20.3188 0.37197,9.76418 h -9.34571 l 0.46496,-8.83426 0.0465,-7.43938 h -0.55795 l -8.50879,16.27364 h -9.76418 z"
           style="font-style:normal;font-variant:normal;font-weight:900;font-stretch:normal;font-size:46.4961px;font-family:'Alegreya Sans SC';-inkscape-font-specification:'Alegreya Sans SC, Heavy';font-variant-ligatures:normal;font-variant-caps:normal;font-variant-numeric:normal;font-feature-settings:normal;text-align:start;letter-spacing:-2.8014px;writing-mode:lr-tb;text-anchor:start;fill:#ffffff;fill-opacity:1;stroke-width:1.16241"
           id="path1049" />
        <path
           d="m 254.99964,132.25734 0.46496,8.83426 h -9.34572 l 0.32547,-8.97375 h -3.11524 q -0.83693,2.09233 -1.95283,4.51012 -1.11591,2.3713 -1.48788,3.11524 l -0.55795,1.1624 -0.88343,0.74394 q -5.30055,-0.27897 -9.34571,-1.72035 l -0.13949,-1.02292 q 3.25473,-3.81268 7.1139,-9.15973 -5.34705,-3.02225 -5.34705,-8.46229 0,-2.97575 1.58087,-5.34705 1.58087,-2.3713 4.37063,-3.67319 2.83626,-1.34839 6.36997,-1.34839 l 12.41446,0.093 z m -11.01958,-14.83226 q -1.81335,0.093 -2.65028,0.97642 -0.79043,0.88343 -0.79043,2.78977 0,1.62736 0.65094,2.60378 0.65095,0.97642 2.23182,1.72035 l 2.92925,-0.23248 -0.23248,-7.71835 z"
           style="font-style:normal;font-variant:normal;font-weight:900;font-stretch:normal;font-size:46.4961px;font-family:'Alegreya Sans SC';-inkscape-font-specification:'Alegreya Sans SC, Heavy';font-variant-ligatures:normal;font-variant-caps:normal;font-variant-numeric:normal;font-feature-settings:normal;text-align:start;letter-spacing:-2.8014px;writing-mode:lr-tb;text-anchor:start;fill:#ffffff;fill-opacity:1;stroke-width:1.16241"
           id="path1051" />
      </g>
      <g
         aria-label="f"
         id="text826"
         style="font-style:italic;font-variant:normal;font-weight:500;font-stretch:normal;font-size:55.7955px;line-height:1.25;font-family:'IBM Plex Serif';-inkscape-font-specification:'IBM Plex Serif, Medium Italic';font-variant-ligatures:normal;font-variant-caps:normal;font-variant-numeric:normal;font-feature-settings:normal;text-align:start;letter-spacing:0px;word-spacing:0px;writing-mode:lr-tb;text-anchor:start;fill:#ffcc00;fill-opacity:1;stroke:none;stroke-width:1.16241">
        <path
           d="m 119.26981,151.65163 q -2.90136,0 -4.29625,-1.17171 -1.39489,-1.1717 -1.39489,-2.84557 0,-1.45068 0.94852,-2.56659 0.94853,-1.06011 2.5666,-1.06011 1.39489,0 2.17602,0.78113 0.78114,0.78114 0.78114,2.00864 0,0.78114 -0.39057,1.56227 -0.44636,0.78114 -1.33909,1.22751 l 0.33477,0.44636 q 2.23182,0 3.57091,-1.50648 1.2833,-1.50648 2.06444,-4.51943 l 7.53239,-30.29696 h -4.9658 l 0.78114,-2.90137 h 4.91 l 0.83693,-3.51511 q 0.55796,-2.39921 1.67387,-4.24046 1.1717,-1.84125 2.67818,-3.068755 1.56228,-1.283297 3.45932,-1.897047 1.95285,-0.669547 4.12887,-0.669547 2.95716,0 4.29626,1.171706 1.39488,1.171706 1.39488,2.845573 0,1.45068 -0.94852,2.56659 -0.94852,1.06012 -2.56659,1.06012 -1.3391,0 -2.17603,-0.78114 -0.78114,-0.78114 -0.78114,-2.00864 0,-0.78114 0.44637,-1.56227 0.44636,-0.781141 1.28329,-1.227505 l -0.33477,-0.446364 q -2.34341,0 -3.79409,1.506479 -1.39489,1.50648 -2.17603,4.51944 l -1.45068,5.74693 h 6.02591 l -0.72534,2.90137 h -5.97012 l -7.03023,28.06514 q -1.1717,4.74261 -4.24046,7.30921 -3.06875,2.56659 -7.30921,2.56659 z"
           style="font-style:italic;font-variant:normal;font-weight:500;font-stretch:normal;font-size:55.7955px;font-family:'IBM Plex Serif';-inkscape-font-specification:'IBM Plex Serif, Medium Italic';font-variant-ligatures:normal;font-variant-caps:normal;font-variant-numeric:normal;font-feature-settings:normal;text-align:start;writing-mode:lr-tb;text-anchor:start;fill:#ffcc00;fill-opacity:1;stroke-width:1.16241"
           id="path1054" />
      </g>
    </g>
    <g
       aria-label="студия"
       transform="scale(1.0588353,0.94443394)"
       id="text916"
       style="font-style:normal;font-variant:normal;font-weight:500;font-stretch:normal;font-size:13.9388px;line-height:1.25;font-family:Montserrat;-inkscape-font-specification:'Montserrat, Medium';font-variant-ligatures:normal;font-variant-caps:normal;font-variant-numeric:normal;font-feature-settings:normal;text-align:start;letter-spacing:11.6195px;word-spacing:0px;writing-mode:lr-tb;text-anchor:start;fill:#ececec;fill-opacity:1;stroke:#ececec;stroke-width:0.804162">
      <path
         d="m 13.616567,111.11668 q -1.129042,0 -2.021126,-0.48786 -0.878144,-0.48786 -1.379941,-1.33813 -0.5017966,-0.8642 -0.5017966,-1.95143 0,-1.08723 0.5017966,-1.93749 0.501797,-0.86421 1.379941,-1.33813 0.892084,-0.48786 2.021126,-0.48786 1.003594,0 1.784167,0.40423 0.794511,0.40423 1.226614,1.17086 l -1.017532,0.65512 q -0.34847,-0.52967 -0.864206,-0.79451 -0.515735,-0.26484 -1.142981,-0.26484 -0.724818,0 -1.310248,0.3206 -0.57149,0.32059 -0.906022,0.91996 -0.320592,0.58543 -0.320592,1.35206 0,0.78057 0.320592,1.37994 0.334532,0.58543 0.906022,0.90602 0.58543,0.3206 1.310248,0.3206 0.627246,0 1.142981,-0.26484 0.515736,-0.26484 0.864206,-0.79451 l 1.017532,0.64118 q -0.432103,0.76664 -1.226614,1.1848 -0.780573,0.40423 -1.784167,0.40423 z"
         style="font-style:normal;font-variant:normal;font-weight:500;font-stretch:normal;font-size:13.9388px;font-family:Montserrat;-inkscape-font-specification:'Montserrat, Medium';font-variant-ligatures:normal;font-variant-caps:normal;font-variant-numeric:normal;font-feature-settings:normal;text-align:start;writing-mode:lr-tb;text-anchor:start;fill:#ececec;fill-opacity:1;stroke:#ececec;stroke-width:0.804162"
         id="path1057" />
      <path
         d="m 35.383476,104.81634 h -2.704127 v 6.2167 h -1.338125 v -6.2167 h -2.704127 v -1.17086 h 6.746379 z"
         style="font-style:normal;font-variant:normal;font-weight:500;font-stretch:normal;font-size:13.9388px;font-family:Montserrat;-inkscape-font-specification:'Montserrat, Medium';font-variant-ligatures:normal;font-variant-caps:normal;font-variant-numeric:normal;font-feature-settings:normal;text-align:start;writing-mode:lr-tb;text-anchor:start;fill:#ececec;fill-opacity:1;stroke:#ececec;stroke-width:0.804162"
         id="path1059" />
      <path
         d="m 55.003799,103.64548 -3.582272,8.12632 q -0.473919,1.12904 -1.115104,1.58902 -0.627246,0.45998 -1.519329,0.45998 -0.543613,0 -1.059349,-0.1812 -0.501797,-0.16727 -0.836328,-0.5018 l 0.571491,-1.00359 q 0.571491,0.54361 1.324186,0.54361 0.487858,0 0.80845,-0.26484 0.334532,-0.25089 0.599369,-0.87814 l 0.236959,-0.51574 -3.261679,-7.37362 h 1.39388 l 2.578678,5.91005 2.550801,-5.91005 z"
         style="font-style:normal;font-variant:normal;font-weight:500;font-stretch:normal;font-size:13.9388px;font-family:Montserrat;-inkscape-font-specification:'Montserrat, Medium';font-variant-ligatures:normal;font-variant-caps:normal;font-variant-numeric:normal;font-feature-settings:normal;text-align:start;writing-mode:lr-tb;text-anchor:start;fill:#ececec;fill-opacity:1;stroke:#ececec;stroke-width:0.804162"
         id="path1061" />
      <path
         d="m 75.111988,109.86218 v 2.88534 h -1.254492 v -1.71448 h -6.174888 v 1.71448 h -1.268431 v -2.88534 h 0.390286 q 0.710879,-0.0418 0.975716,-1.00359 0.264838,-0.96178 0.362409,-2.71807 l 0.111511,-2.49504 h 5.728846 v 6.2167 z m -5.742785,-3.62408 q -0.05576,1.39388 -0.23696,2.31384 -0.167266,0.90602 -0.627246,1.31024 h 4.139824 v -5.04584 h -3.205924 z"
         style="font-style:normal;font-variant:normal;font-weight:500;font-stretch:normal;font-size:13.9388px;font-family:Montserrat;-inkscape-font-specification:'Montserrat, Medium';font-variant-ligatures:normal;font-variant-caps:normal;font-variant-numeric:normal;font-feature-settings:normal;text-align:start;writing-mode:lr-tb;text-anchor:start;fill:#ececec;fill-opacity:1;stroke:#ececec;stroke-width:0.804162"
         id="path1063" />
      <path
         d="m 88.473838,103.64548 h 1.338125 v 5.38038 l 4.530109,-5.38038 h 1.212676 v 7.38756 h -1.338125 v -5.38037 l -4.516171,5.38037 h -1.226614 z"
         style="font-style:normal;font-variant:normal;font-weight:500;font-stretch:normal;font-size:13.9388px;font-family:Montserrat;-inkscape-font-specification:'Montserrat, Medium';font-variant-ligatures:normal;font-variant-caps:normal;font-variant-numeric:normal;font-feature-settings:normal;text-align:start;writing-mode:lr-tb;text-anchor:start;fill:#ececec;fill-opacity:1;stroke:#ececec;stroke-width:0.804162"
         id="path1065" />
      <path
         d="m 115.69083,103.64548 v 7.38756 h -1.19874 v -2.34172 h -2.14658 -0.15332 l -1.6169,2.34172 h -1.4357 l 1.79811,-2.52292 q -0.83633,-0.2509 -1.28237,-0.82239 -0.44605,-0.58543 -0.44605,-1.44963 0,-1.26844 0.86421,-1.92356 0.86421,-0.66906 2.38354,-0.66906 z m -5.11554,2.63443 q 0,0.73876 0.45998,1.10117 0.47392,0.34847 1.40782,0.34847 h 2.049 v -2.91321 h -1.99325 q -1.92355,0 -1.92355,1.46357 z"
         style="font-style:normal;font-variant:normal;font-weight:500;font-stretch:normal;font-size:13.9388px;font-family:Montserrat;-inkscape-font-specification:'Montserrat, Medium';font-variant-ligatures:normal;font-variant-caps:normal;font-variant-numeric:normal;font-feature-settings:normal;text-align:start;writing-mode:lr-tb;text-anchor:start;fill:#ececec;fill-opacity:1;stroke:#ececec;stroke-width:0.804162"
         id="path1067" />
    </g>
    <path
       style="fill:#fff6d5;stroke:#ffffff;stroke-width:1.5;stroke-linecap:butt;stroke-linejoin:miter;stroke-miterlimit:4;stroke-dasharray:none;stroke-opacity:1"
       d="m 158.51995,104.63294 c 32.2679,0 64.53556,0 96.80296,0"
       id="path1757"
       inkscape:export-xdpi="95.999992"
       inkscape:export-ydpi="95.999992" />
    <path
       style="fill:#fff6d5;stroke:#ffffff;stroke-width:1.5;stroke-linecap:butt;stroke-linejoin:miter;stroke-miterlimit:4;stroke-dasharray:none;stroke-opacity:1"
       d="m 158.51995,101.77754 c 32.2679,0 64.53556,0 96.80296,0"
       id="path1761"
       inkscape:export-xdpi="95.999992"
       inkscape:export-ydpi="95.999992" />
    <path
       style="fill:#fff6d5;stroke:#ffffff;stroke-width:1.5;stroke-linecap:butt;stroke-linejoin:miter;stroke-miterlimit:4;stroke-dasharray:none;stroke-opacity:1"
       d="m 158.51995,98.83485 c 32.2679,0 64.53556,0 96.80296,0"
       id="path1787"
       inkscape:export-xdpi="95.999992"
       inkscape:export-ydpi="95.999992" />
    <g
       aria-label="академической музыки"
       transform="scale(1.0588353,0.94443394)"
       id="text1795"
       style="font-style:normal;font-variant:normal;font-weight:500;font-stretch:normal;font-size:13.9388px;line-height:1.25;font-family:Montserrat;-inkscape-font-specification:'Montserrat, Medium';font-variant-ligatures:normal;font-variant-caps:normal;font-variant-numeric:normal;font-feature-settings:normal;text-align:start;letter-spacing:3.04271px;word-spacing:0px;writing-mode:lr-tb;text-anchor:start;fill:#ececec;fill-opacity:1;stroke:#ececec;stroke-width:0.804162">
      <path
         d="m 13.031138,166.32938 q 1.533268,0 2.341718,0.75269 0.822389,0.7527 0.822389,2.24415 v 4.46042 h -1.268431 v -0.97572 q -0.334531,0.51574 -0.961777,0.79451 -0.613307,0.26484 -1.463574,0.26484 -1.240553,0 -1.993248,-0.59937 -0.7387565,-0.59937 -0.7387565,-1.57508 0,-0.97572 0.7108785,-1.56115 0.710879,-0.59937 2.258086,-0.59937 h 2.118697 v -0.26483 q 0,-0.86421 -0.501796,-1.32419 -0.501797,-0.45998 -1.477513,-0.45998 -0.655124,0 -1.28237,0.22302 -0.627246,0.20908 -1.059348,0.57149 l -0.5575525,-1.00359 q 0.5714905,-0.45998 1.3660025,-0.69694 0.794512,-0.2509 1.686595,-0.2509 z m -0.306654,6.50942 q 0.766634,0 1.324186,-0.33453 0.557552,-0.34847 0.80845,-0.97572 v -1.03147 h -2.062942 q -1.700533,0 -1.700533,1.14298 0,0.55755 0.432102,0.87815 0.432103,0.32059 1.198737,0.32059 z"
         style="font-style:normal;font-variant:normal;font-weight:500;font-stretch:normal;font-size:13.9388px;font-family:Montserrat;-inkscape-font-specification:'Montserrat, Medium';font-variant-ligatures:normal;font-variant-caps:normal;font-variant-numeric:normal;font-feature-settings:normal;text-align:start;writing-mode:lr-tb;text-anchor:start;fill:#ececec;fill-opacity:1;stroke:#ececec;stroke-width:0.804162"
         id="path1070" />
      <path
         d="m 24.520744,170.66435 h -1.533268 v 3.12229 h -1.338125 v -7.38757 h 1.338125 v 3.12229 h 1.561145 l 2.397474,-3.12229 h 1.435696 l -2.801698,3.5544 2.996842,3.83317 H 27.00185 Z"
         style="font-style:normal;font-variant:normal;font-weight:500;font-stretch:normal;font-size:13.9388px;font-family:Montserrat;-inkscape-font-specification:'Montserrat, Medium';font-variant-ligatures:normal;font-variant-caps:normal;font-variant-numeric:normal;font-feature-settings:normal;text-align:start;writing-mode:lr-tb;text-anchor:start;fill:#ececec;fill-opacity:1;stroke:#ececec;stroke-width:0.804162"
         id="path1072" />
      <path
         d="m 35.522499,166.32938 q 1.533268,0 2.341719,0.75269 0.822389,0.7527 0.822389,2.24415 v 4.46042 h -1.268431 v -0.97572 q -0.334531,0.51574 -0.961777,0.79451 -0.613307,0.26484 -1.463574,0.26484 -1.240553,0 -1.993248,-0.59937 -0.738757,-0.59937 -0.738757,-1.57508 0,-0.97572 0.710879,-1.56115 0.710879,-0.59937 2.258086,-0.59937 h 2.118697 v -0.26483 q 0,-0.86421 -0.501797,-1.32419 -0.501796,-0.45998 -1.477512,-0.45998 -0.655124,0 -1.28237,0.22302 -0.627246,0.20908 -1.059349,0.57149 l -0.557552,-1.00359 q 0.571491,-0.45998 1.366003,-0.69694 0.794511,-0.2509 1.686594,-0.2509 z m -0.306653,6.50942 q 0.766634,0 1.324186,-0.33453 0.557552,-0.34847 0.80845,-0.97572 v -1.03147 H 35.28554 q -1.700534,0 -1.700534,1.14298 0,0.55755 0.432103,0.87815 0.432103,0.32059 1.198737,0.32059 z"
         style="font-style:normal;font-variant:normal;font-weight:500;font-stretch:normal;font-size:13.9388px;font-family:Montserrat;-inkscape-font-specification:'Montserrat, Medium';font-variant-ligatures:normal;font-variant-caps:normal;font-variant-numeric:normal;font-feature-settings:normal;text-align:start;writing-mode:lr-tb;text-anchor:start;fill:#ececec;fill-opacity:1;stroke:#ececec;stroke-width:0.804162"
         id="path1074" />
      <path
         d="m 51.653725,172.61578 v 2.88533 h -1.254492 v -1.71447 h -6.174889 v 1.71447 h -1.26843 v -2.88533 H 43.3462 q 0.710879,-0.0418 0.975716,-1.0036 0.264837,-0.96177 0.362409,-2.71806 l 0.11151,-2.49505 h 5.728847 v 6.21671 z m -5.742786,-3.62409 q -0.05575,1.39388 -0.236959,2.31384 -0.167266,0.90602 -0.627246,1.31025 h 4.139823 v -5.04585 h -3.205924 z"
         style="font-style:normal;font-variant:normal;font-weight:500;font-stretch:normal;font-size:13.9388px;font-family:Montserrat;-inkscape-font-specification:'Montserrat, Medium';font-variant-ligatures:normal;font-variant-caps:normal;font-variant-numeric:normal;font-feature-settings:normal;text-align:start;writing-mode:lr-tb;text-anchor:start;fill:#ececec;fill-opacity:1;stroke:#ececec;stroke-width:0.804162"
         id="path1076" />
      <path
         d="m 63.115466,170.13467 q 0,0.15333 -0.02788,0.40423 h -5.993684 q 0.125449,0.97571 0.850267,1.57508 0.738756,0.58543 1.825983,0.58543 1.324186,0 2.132636,-0.89208 l 0.738757,0.8642 q -0.501797,0.58543 -1.254492,0.89209 -0.738757,0.30665 -1.658718,0.30665 -1.170859,0 -2.076881,-0.47392 -0.906022,-0.48786 -1.407819,-1.35206 -0.487858,-0.86421 -0.487858,-1.95144 0,-1.07328 0.47392,-1.93749 0.487858,-0.8642 1.324186,-1.33812 0.850266,-0.48786 1.909615,-0.48786 1.059349,0 1.881738,0.48786 0.836328,0.47392 1.296309,1.33812 0.473919,0.86421 0.473919,1.97931 z M 59.4635,167.45842 q -0.961777,0 -1.616901,0.58543 -0.641184,0.58543 -0.752695,1.53327 h 4.739192 q -0.11151,-0.9339 -0.766634,-1.51933 -0.641185,-0.59937 -1.602962,-0.59937 z"
         style="font-style:normal;font-variant:normal;font-weight:500;font-stretch:normal;font-size:13.9388px;font-family:Montserrat;-inkscape-font-specification:'Montserrat, Medium';font-variant-ligatures:normal;font-variant-caps:normal;font-variant-numeric:normal;font-feature-settings:normal;text-align:start;writing-mode:lr-tb;text-anchor:start;fill:#ececec;fill-opacity:1;stroke:#ececec;stroke-width:0.804162"
         id="path1078" />
      <path
         d="m 76.751637,166.39907 v 7.38757 h -1.212676 v -5.39432 l -2.759882,4.55799 h -0.58543 l -2.732005,-4.57193 v 5.40826 H 68.23503 v -7.38757 h 1.379941 l 2.899271,4.99009 2.982903,-4.99009 z"
         style="font-style:normal;font-variant:normal;font-weight:500;font-stretch:normal;font-size:13.9388px;font-family:Montserrat;-inkscape-font-specification:'Montserrat, Medium';font-variant-ligatures:normal;font-variant-caps:normal;font-variant-numeric:normal;font-feature-settings:normal;text-align:start;writing-mode:lr-tb;text-anchor:start;fill:#ececec;fill-opacity:1;stroke:#ececec;stroke-width:0.804162"
         id="path1080" />
      <path
         d="m 82.400885,166.39907 h 1.338125 v 5.38038 l 4.53011,-5.38038 h 1.212676 v 7.38757 h -1.338125 v -5.38038 l -4.516171,5.38038 h -1.226615 z"
         style="font-style:normal;font-variant:normal;font-weight:500;font-stretch:normal;font-size:13.9388px;font-family:Montserrat;-inkscape-font-specification:'Montserrat, Medium';font-variant-ligatures:normal;font-variant-caps:normal;font-variant-numeric:normal;font-feature-settings:normal;text-align:start;writing-mode:lr-tb;text-anchor:start;fill:#ececec;fill-opacity:1;stroke:#ececec;stroke-width:0.804162"
         id="path1082" />
      <path
         d="m 101.01321,166.39907 v 7.38757 h -1.338128 v -2.98291 q -1.198736,0.55756 -2.383534,0.55756 -1.379942,0 -2.132637,-0.64119 -0.752695,-0.64118 -0.752695,-1.92355 v -2.39748 h 1.338125 v 2.31384 q 0,0.76664 0.473919,1.15692 0.487858,0.39029 1.352064,0.39029 0.975716,0 2.104758,-0.48786 v -3.37319 z"
         style="font-style:normal;font-variant:normal;font-weight:500;font-stretch:normal;font-size:13.9388px;font-family:Montserrat;-inkscape-font-specification:'Montserrat, Medium';font-variant-ligatures:normal;font-variant-caps:normal;font-variant-numeric:normal;font-feature-settings:normal;text-align:start;writing-mode:lr-tb;text-anchor:start;fill:#ececec;fill-opacity:1;stroke:#ececec;stroke-width:0.804162"
         id="path1084" />
      <path
         d="m 113.32521,170.13467 q 0,0.15333 -0.0279,0.40423 h -5.99369 q 0.12545,0.97571 0.85027,1.57508 0.73875,0.58543 1.82598,0.58543 1.32419,0 2.13264,-0.89208 l 0.73875,0.8642 q -0.50179,0.58543 -1.25449,0.89209 -0.73875,0.30665 -1.65872,0.30665 -1.17085,0 -2.07688,-0.47392 -0.90602,-0.48786 -1.40782,-1.35206 -0.48785,-0.86421 -0.48785,-1.95144 0,-1.07328 0.47392,-1.93749 0.48785,-0.8642 1.32418,-1.33812 0.85027,-0.48786 1.90962,-0.48786 1.05935,0 1.88174,0.48786 0.83632,0.47392 1.2963,1.33812 0.47392,0.86421 0.47392,1.97931 z m -3.65196,-2.67625 q -0.96178,0 -1.6169,0.58543 -0.64119,0.58543 -0.7527,1.53327 h 4.73919 q -0.11151,-0.9339 -0.76663,-1.51933 -0.64119,-0.59937 -1.60296,-0.59937 z"
         style="font-style:normal;font-variant:normal;font-weight:500;font-stretch:normal;font-size:13.9388px;font-family:Montserrat;-inkscape-font-specification:'Montserrat, Medium';font-variant-ligatures:normal;font-variant-caps:normal;font-variant-numeric:normal;font-feature-settings:normal;text-align:start;writing-mode:lr-tb;text-anchor:start;fill:#ececec;fill-opacity:1;stroke:#ececec;stroke-width:0.804162"
         id="path1086" />
      <path
         d="m 121.66464,173.87027 q -1.12904,0 -2.02113,-0.48786 -0.87814,-0.48786 -1.37994,-1.33812 -0.50179,-0.86421 -0.50179,-1.95144 0,-1.08722 0.50179,-1.93749 0.5018,-0.8642 1.37994,-1.33812 0.89209,-0.48786 2.02113,-0.48786 1.00359,0 1.78417,0.40422 0.79451,0.40423 1.22661,1.17086 l -1.01753,0.65513 q -0.34847,-0.52968 -0.86421,-0.79452 -0.51573,-0.26483 -1.14298,-0.26483 -0.72482,0 -1.31025,0.32059 -0.57149,0.32059 -0.90602,0.91996 -0.32059,0.58543 -0.32059,1.35206 0,0.78058 0.32059,1.37995 0.33453,0.58543 0.90602,0.90602 0.58543,0.32059 1.31025,0.32059 0.62725,0 1.14298,-0.26484 0.51574,-0.26483 0.86421,-0.79451 l 1.01753,0.64119 q -0.4321,0.76663 -1.22661,1.18479 -0.78058,0.40423 -1.78417,0.40423 z"
         style="font-style:normal;font-variant:normal;font-weight:500;font-stretch:normal;font-size:13.9388px;font-family:Montserrat;-inkscape-font-specification:'Montserrat, Medium';font-variant-ligatures:normal;font-variant-caps:normal;font-variant-numeric:normal;font-feature-settings:normal;text-align:start;writing-mode:lr-tb;text-anchor:start;fill:#ececec;fill-opacity:1;stroke:#ececec;stroke-width:0.804162"
         id="path1088" />
      <path
         d="m 132.31792,170.66435 h -1.53326 v 3.12229 h -1.33813 v -7.38757 h 1.33813 v 3.12229 h 1.56114 l 2.39748,-3.12229 h 1.43569 l -2.8017,3.5544 2.99685,3.83317 h -1.57509 z"
         style="font-style:normal;font-variant:normal;font-weight:500;font-stretch:normal;font-size:13.9388px;font-family:Montserrat;-inkscape-font-specification:'Montserrat, Medium';font-variant-ligatures:normal;font-variant-caps:normal;font-variant-numeric:normal;font-feature-settings:normal;text-align:start;writing-mode:lr-tb;text-anchor:start;fill:#ececec;fill-opacity:1;stroke:#ececec;stroke-width:0.804162"
         id="path1090" />
      <path
         d="m 143.73783,173.87027 q -1.10117,0 -1.97931,-0.48786 -0.87814,-0.48786 -1.37994,-1.33812 -0.48786,-0.86421 -0.48786,-1.95144 0,-1.08722 0.48786,-1.93749 0.5018,-0.8642 1.37994,-1.33812 0.87814,-0.48786 1.97931,-0.48786 1.10116,0 1.96537,0.48786 0.87814,0.47392 1.366,1.33812 0.5018,0.85027 0.5018,1.93749 0,1.08723 -0.5018,1.95144 -0.48786,0.85026 -1.366,1.33812 -0.86421,0.48786 -1.96537,0.48786 z m 0,-1.17086 q 0.71088,0 1.26843,-0.32059 0.57149,-0.33453 0.89208,-0.91996 0.3206,-0.59937 0.3206,-1.36601 0,-0.76663 -0.3206,-1.35206 -0.32059,-0.59937 -0.89208,-0.91996 -0.55755,-0.32059 -1.26843,-0.32059 -0.71088,0 -1.28237,0.32059 -0.55755,0.32059 -0.89208,0.91996 -0.3206,0.58543 -0.3206,1.35206 0,0.76664 0.3206,1.36601 0.33453,0.58543 0.89208,0.91996 0.57149,0.32059 1.28237,0.32059 z"
         style="font-style:normal;font-variant:normal;font-weight:500;font-stretch:normal;font-size:13.9388px;font-family:Montserrat;-inkscape-font-specification:'Montserrat, Medium';font-variant-ligatures:normal;font-variant-caps:normal;font-variant-numeric:normal;font-feature-settings:normal;text-align:start;writing-mode:lr-tb;text-anchor:start;fill:#ececec;fill-opacity:1;stroke:#ececec;stroke-width:0.804162"
         id="path1092" />
      <path
         d="m 152.55118,166.39907 h 1.33813 v 5.38038 l 4.53011,-5.38038 h 1.21267 v 7.38757 h -1.33812 v -5.38038 l -4.51617,5.38038 h -1.22662 z m 3.45683,-0.96177 q -1.03147,0 -1.60297,-0.48786 -0.57149,-0.5018 -0.58542,-1.4357 h 0.90602 q 0.0139,0.51574 0.34847,0.83633 0.34847,0.30665 0.91996,0.30665 0.57149,0 0.91996,-0.30665 0.34847,-0.32059 0.36241,-0.83633 h 0.9339 q -0.0139,0.9339 -0.59937,1.4357 -0.58543,0.48786 -1.60296,0.48786 z"
         style="font-style:normal;font-variant:normal;font-weight:500;font-stretch:normal;font-size:13.9388px;font-family:Montserrat;-inkscape-font-specification:'Montserrat, Medium';font-variant-ligatures:normal;font-variant-caps:normal;font-variant-numeric:normal;font-feature-settings:normal;text-align:start;writing-mode:lr-tb;text-anchor:start;fill:#ececec;fill-opacity:1;stroke:#ececec;stroke-width:0.804162"
         id="path1094" />
      <path
         d="m 180.57624,166.39907 v 7.38757 h -1.21267 v -5.39432 l -2.75988,4.55799 h -0.58543 l -2.73201,-4.57193 v 5.40826 h -1.22661 v -7.38757 h 1.37994 l 2.89927,4.99009 2.9829,-4.99009 z"
         style="font-style:normal;font-variant:normal;font-weight:500;font-stretch:normal;font-size:13.9388px;font-family:Montserrat;-inkscape-font-specification:'Montserrat, Medium';font-variant-ligatures:normal;font-variant-caps:normal;font-variant-numeric:normal;font-feature-settings:normal;text-align:start;writing-mode:lr-tb;text-anchor:start;fill:#ececec;fill-opacity:1;stroke:#ececec;stroke-width:0.804162"
         id="path1096" />
      <path
         d="m 192.81854,166.39907 -3.58227,8.12632 q -0.47392,1.12905 -1.11511,1.58903 -0.62724,0.45998 -1.51933,0.45998 -0.54361,0 -1.05935,-0.18121 -0.50179,-0.16726 -0.83632,-0.50179 l 0.57149,-1.0036 q 0.57149,0.54361 1.32418,0.54361 0.48786,0 0.80845,-0.26483 0.33453,-0.2509 0.59937,-0.87815 l 0.23696,-0.51573 -3.26168,-7.37363 h 1.39388 l 2.57868,5.91005 2.5508,-5.91005 z"
         style="font-style:normal;font-variant:normal;font-weight:500;font-stretch:normal;font-size:13.9388px;font-family:Montserrat;-inkscape-font-specification:'Montserrat, Medium';font-variant-ligatures:normal;font-variant-caps:normal;font-variant-numeric:normal;font-feature-settings:normal;text-align:start;writing-mode:lr-tb;text-anchor:start;fill:#ececec;fill-opacity:1;stroke:#ececec;stroke-width:0.804162"
         id="path1098" />
      <path
         d="m 201.04646,169.93953 q 0.73876,0.19514 1.14298,0.62724 0.40423,0.43211 0.40423,1.07329 0,0.65512 -0.44604,1.17086 -0.44604,0.5018 -1.24056,0.79451 -0.78057,0.27878 -1.75628,0.27878 -0.82239,0 -1.6169,-0.20908 -0.78058,-0.22302 -1.39388,-0.62725 l 0.40422,-1.01753 q 0.52967,0.33453 1.21268,0.52967 0.683,0.18121 1.37994,0.18121 0.94784,0 1.50539,-0.3206 0.57149,-0.33453 0.57149,-0.89208 0,-0.51573 -0.45998,-0.79451 -0.44604,-0.27878 -1.26843,-0.27878 h -1.35207 v -0.96177 h 1.2545 q 0.75269,0 1.18479,-0.26484 0.43211,-0.26484 0.43211,-0.72482 0,-0.5018 -0.51574,-0.78057 -0.5018,-0.27878 -1.366,-0.27878 -1.10117,0 -2.32778,0.57149 l -0.36241,-1.03147 q 1.35206,-0.683 2.82958,-0.683 0.89208,0 1.60296,0.2509 0.71088,0.2509 1.1151,0.71088 0.40423,0.45998 0.40423,1.04541 0,0.54361 -0.36241,0.97571 -0.36241,0.43211 -0.97572,0.65513 z"
         style="font-style:normal;font-variant:normal;font-weight:500;font-stretch:normal;font-size:13.9388px;font-family:Montserrat;-inkscape-font-specification:'Montserrat, Medium';font-variant-ligatures:normal;font-variant-caps:normal;font-variant-numeric:normal;font-feature-settings:normal;text-align:start;writing-mode:lr-tb;text-anchor:start;fill:#ececec;fill-opacity:1;stroke:#ececec;stroke-width:0.804162"
         id="path1100" />
      <path
         d="m 211.0028,168.90806 q 1.39388,0.0139 2.13263,0.64118 0.73876,0.62725 0.73876,1.77023 0,1.19874 -0.80845,1.85386 -0.79451,0.64118 -2.28596,0.62725 l -3.10836,-0.0139 v -7.38757 h 1.33813 v 2.49505 z m 3.97255,-2.50899 h 1.33813 v 7.38757 h -1.33813 z m -4.29315,6.38397 q 0.90603,0.0139 1.36601,-0.36241 0.47392,-0.37634 0.47392,-1.1151 0,-0.72482 -0.45998,-1.05935 -0.45998,-0.33453 -1.37995,-0.34847 l -1.67265,-0.0279 v 2.89927 z"
         style="font-style:normal;font-variant:normal;font-weight:500;font-stretch:normal;font-size:13.9388px;font-family:Montserrat;-inkscape-font-specification:'Montserrat, Medium';font-variant-ligatures:normal;font-variant-caps:normal;font-variant-numeric:normal;font-feature-settings:normal;text-align:start;writing-mode:lr-tb;text-anchor:start;fill:#ececec;fill-opacity:1;stroke:#ececec;stroke-width:0.804162"
         id="path1102" />
      <path
         d="m 224.83412,170.66435 h -1.53327 v 3.12229 h -1.33812 v -7.38757 h 1.33812 v 3.12229 h 1.56115 l 2.39747,-3.12229 h 1.4357 l -2.8017,3.5544 2.99684,3.83317 h -1.57508 z"
         style="font-style:normal;font-variant:normal;font-weight:500;font-stretch:normal;font-size:13.9388px;font-family:Montserrat;-inkscape-font-specification:'Montserrat, Medium';font-variant-ligatures:normal;font-variant-caps:normal;font-variant-numeric:normal;font-feature-settings:normal;text-align:start;writing-mode:lr-tb;text-anchor:start;fill:#ececec;fill-opacity:1;stroke:#ececec;stroke-width:0.804162"
         id="path1104" />
      <path
         d="m 233.34084,166.39907 h 1.33813 v 5.38038 l 4.53011,-5.38038 h 1.21267 v 7.38757 h -1.33812 v -5.38038 l -4.51617,5.38038 h -1.22662 z"
         style="font-style:normal;font-variant:normal;font-weight:500;font-stretch:normal;font-size:13.9388px;font-family:Montserrat;-inkscape-font-specification:'Montserrat, Medium';font-variant-ligatures:normal;font-variant-caps:normal;font-variant-numeric:normal;font-feature-settings:normal;text-align:start;writing-mode:lr-tb;text-anchor:start;fill:#ececec;fill-opacity:1;stroke:#ececec;stroke-width:0.804162"
         id="path1106" />
    </g>
  </g>
</svg>
